<svg viewBox="0 0 1000 620" xmlns="http://www.w3.org/2000/svg">
  <!-- Dashboard Background -->
  <rect width="1000" height="620" fill="#f0f2f5" rx="8" ry="8"/>
  
  <!-- Header -->
  <rect x="20" y="20" width="960" height="60" fill="#1a237e" rx="4" ry="4"/>
  <text x="40" y="55" font-family="Arial" font-size="22" fill="white" font-weight="bold">GDOT Traffic Analysis Dashboard</text>
  <text x="830" y="55" font-family="Arial" font-size="14" fill="white">Live Mode | 2025-04-24</text>
  
  <!-- Main Video Feed with Detection Overlay -->
  <rect x="20" y="100" width="540" height="340" fill="#000000" rx="4" ry="4"/>
  
  <!-- Detection overlay boxes -->
  <rect x="123" y="280" width="85" height="45" fill="none" stroke="#00ff00" stroke-width="2" rx="2" ry="2"/>
  <rect x="235" y="290" width="90" height="50" fill="none" stroke="#00ff00" stroke-width="2" rx="2" ry="2"/>
  <rect x="360" y="275" width="88" height="48" fill="none" stroke="#ff0000" stroke-width="2" rx="2" ry="2"/>
  
  <!-- Class labels -->
  <rect x="123" y="270" width="40" height="18" fill="rgba(0,0,0,0.5)" rx="2" ry="2"/>
  <text x="128" y="284" font-family="Arial" font-size="12" fill="white">Car</text>
  
  <rect x="235" y="280" width="40" height="18" fill="rgba(0,0,0,0.5)" rx="2" ry="2"/>
  <text x="240" y="294" font-family="Arial" font-size="12" fill="white">Car</text>
  
  <rect x="360" y="265" width="50" height="18" fill="rgba(0,0,0,0.5)" rx="2" ry="2"/>
  <text x="365" y="279" font-family="Arial" font-size="12" fill="white">Truck</text>
  
  <!-- Count line -->
  <line x1="20" y1="320" x2="560" y2="320" stroke="#ffff00" stroke-width="2" stroke-dasharray="5,5"/>
  <rect x="25" y="300" width="80" height="18" fill="rgba(0,0,0,0.5)" rx="2" ry="2"/>
  <text x="30" y="314" font-family="Arial" font-size="12" fill="#ffff00">Count Line</text>
  
  <!-- Video Controls -->
  <rect x="20" y="450" width="540" height="40" fill="#424242" rx="4" ry="4"/>
  <circle cx="50" cy="470" r="15" fill="#2196f3"/>
  <text x="50" y="475" font-family="Arial" font-size="18" fill="white" text-anchor="middle">▶</text>
  <text x="270" y="477" font-family="Arial" font-size="14" fill="white" text-anchor="middle">ATL-CCTV-0092 • Detection Active • 30 FPS</text>
  
  <!-- Real-time Vehicle Counts Panel -->
  <rect x="580" y="100" width="400" height="190" fill="white" rx="4" ry="4"/>
  <text x="600" y="130" font-family="Arial" font-size="18" fill="#1a237e" font-weight="bold">Real-time Vehicle Count</text>
  
  <!-- Vehicle count bar chart -->
  <rect x="600" y="150" width="80" height="100" fill="#2196f3" rx="2" ry="2"/>
  <rect x="700" y="170" width="80" height="80" fill="#ff9800" rx="2" ry="2"/>
  <rect x="800" y="210" width="80" height="40" fill="#4caf50" rx="2" ry="2"/>
  <rect x="900" y="230" width="80" height="20" fill="#9c27b0" rx="2" ry="2"/>
  
  <text x="640" y="265" font-family="Arial" font-size="14" fill="white" font-weight="bold" text-anchor="middle">127</text>
  <text x="740" y="265" font-family="Arial" font-size="14" fill="white" font-weight="bold" text-anchor="middle">82</text>
  <text x="840" y="265" font-family="Arial" font-size="14" fill="white" font-weight="bold" text-anchor="middle">42</text>
  <text x="940" y="265" font-family="Arial" font-size="14" fill="white" font-weight="bold" text-anchor="middle">19</text>
  
  <text x="640" y="285" font-family="Arial" font-size="12" fill="#424242" text-anchor="middle">Cars</text>
  <text x="740" y="285" font-family="Arial" font-size="12" fill="#424242" text-anchor="middle">Trucks</text>
  <text x="840" y="285" font-family="Arial" font-size="12" fill="#424242" text-anchor="middle">Buses</text>
  <text x="940" y="285" font-family="Arial" font-size="12" fill="#424242" text-anchor="middle">Motorcycles</text>
  
  <!-- Vehicle Speed Distribution -->
  <rect x="580" y="310" width="400" height="180" fill="white" rx="4" ry="4"/>
  <text x="600" y="340" font-family="Arial" font-size="18" fill="#1a237e" font-weight="bold">Speed Distribution (mph)</text>
  
  <!-- Speed histogram -->
  <rect x="600" y="360" width="30" height="20" fill="#e3f2fd" rx="1" ry="1"/>
  <rect x="640" y="360" width="30" height="40" fill="#bbdefb" rx="1" ry="1"/>
  <rect x="680" y="360" width="30" height="70" fill="#90caf9" rx="1" ry="1"/>
  <rect x="720" y="360" width="30" height="90" fill="#64b5f6" rx="1" ry="1"/>
  <rect x="760" y="360" width="30" height="50" fill="#42a5f5" rx="1" ry="1"/>
  <rect x="800" y="360" width="30" height="25" fill="#2196f3" rx="1" ry="1"/>
  <rect x="840" y="360" width="30" height="10" fill="#1e88e5" rx="1" ry="1"/>
  <rect x="880" y="360" width="30" height="5" fill="#1976d2" rx="1" ry="1"/>
  <rect x="920" y="360" width="30" height="3" fill="#1565c0" rx="1" ry="1"/>
  
  <!-- X-axis labels -->
  <text x="615" y="470" font-family="Arial" font-size="10" fill="#424242" text-anchor="middle">0-10</text>
  <text x="655" y="470" font-family="Arial" font-size="10" fill="#424242" text-anchor="middle">10-20</text>
  <text x="695" y="470" font-family="Arial" font-size="10" fill="#424242" text-anchor="middle">20-30</text>
  <text x="735" y="470" font-family="Arial" font-size="10" fill="#424242" text-anchor="middle">30-40</text>
  <text x="775" y="470" font-family="Arial" font-size="10" fill="#424242" text-anchor="middle">40-50</text>
  <text x="815" y="470" font-family="Arial" font-size="10" fill="#424242" text-anchor="middle">50-60</text>
  <text x="855" y="470" font-family="Arial" font-size="10" fill="#424242" text-anchor="middle">60-70</text>
  <text x="895" y="470" font-family="Arial" font-size="10" fill="#424242" text-anchor="middle">70-80</text>
  <text x="935" y="470" font-family="Arial" font-size="10" fill="#424242" text-anchor="middle">80+</text>
  
  <!-- Detection Performance Metrics -->
  <rect x="20" y="510" width="350" height="90" fill="white" rx="4" ry="4"/>
  <text x="40" y="540" font-family="Arial" font-size="18" fill="#1a237e" font-weight="bold">Model Performance</text>
  
  <text x="40" y="570" font-family="Arial" font-size="14" fill="#424242">Inference Time: 24ms/frame</text>
  <text x="40" y="590" font-family="Arial" font-size="14" fill="#424242">mAP (IoU=0.5): 0.89</text>
  <text x="250" y="570" font-family="Arial" font-size="14" fill="#424242">CUDA Utilization: 67%</text>
  <text x="250" y="590" font-family="Arial" font-size="14" fill="#424242">Tracking Accuracy: 92%</text>
  
  <!-- Traffic Flow Rate -->
  <rect x="390" y="510" width="590" height="90" fill="white" rx="4" ry="4"/>
  <text x="410" y="540" font-family="Arial" font-size="18" fill="#1a237e" font-weight="bold">Traffic Flow Rate (vehicles/min)</text>
  
  <!-- Traffic flow line chart -->
  <polyline points="410,580 450,570 490,575 530,560 570,540 610,550 650,535 690,525 730,540 770,530 810,520 850,525 890,510 930,520 970,515" 
            fill="none" stroke="#2196f3" stroke-width="2"/>
  
  <!-- Dots on line -->
  <circle cx="410" cy="580" r="3" fill="#2196f3"/>
  <circle cx="450" cy="570" r="3" fill="#2196f3"/>
  <circle cx="490" cy="575" r="3" fill="#2196f3"/>
  <circle cx="530" cy="560" r="3" fill="#2196f3"/>
  <circle cx="570" cy="540" r="3" fill="#2196f3"/>
  <circle cx="610" cy="550" r="3" fill="#2196f3"/>
  <circle cx="650" cy="535" r="3" fill="#2196f3"/>
  <circle cx="690" cy="525" r="3" fill="#2196f3"/>
  <circle cx="730" cy="540" r="3" fill="#2196f3"/>
  <circle cx="770" cy="530" r="3" fill="#2196f3"/>
  <circle cx="810" cy="520" r="3" fill="#2196f3"/>
  <circle cx="850" cy="525" r="3" fill="#2196f3"/>
  <circle cx="890" cy="510" r="3" fill="#2196f3"/>
  <circle cx="930" cy="520" r="3" fill="#2196f3"/>
  <circle cx="970" cy="515" r="3" fill="#2196f3"/>
  
  <!-- X axis labels -->
  <text x="410" y="595" font-family="Arial" font-size="10" fill="#424242" text-anchor="middle">9:00</text>
  <text x="530" cy="595" font-family="Arial" font-size="10" fill="#424242" text-anchor="middle">9:15</text>
  <text x="650" cy="595" font-family="Arial" font-size="10" fill="#424242" text-anchor="middle">9:30</text>
  <text x="770" cy="595" font-family="Arial" font-size="10" fill="#424242" text-anchor="middle">9:45</text>
  <text x="890" cy="595" font-family="Arial" font-size="10" fill="#424242" text-anchor="middle">10:00</text>
  
  <!-- Neural Network Visualization Callout -->
  <rect x="615" y="30" width="300" height="50" fill="rgba(255,255,255,0.9)" rx="10" ry="10" stroke="#1a237e" stroke-width="2"/>
  <text x="630" y="55" font-family="Arial" font-size="13" fill="#1a237e">YOLOv8 Detection + ByteTrack Active</text>
  <text x="630" y="75" font-family="Arial" font-size="12" fill="#424242">RTX A5000 GPU | Mixed Precision (FP16)</text>
</svg>